<svg width="3081" height="400" viewBox="0 0 3081 400" fill="none" xmlns="http://www.w3.org/2000/svg">
<path d="M331.543 239.676L192.236 -6.53267e-05H470.814L331.543 239.676Z" fill="#6897DE"/>
<path d="M331.543 239.676L464.467 400H203.608L331.543 239.676Z" fill="#4773B5"/>
<path d="M104.822 195.951L192.272 5.41063e-05L331.543 239.676L203.608 400L104.822 195.951Z" fill="#5D8ED7"/>
<path d="M558.263 194.332L464.337 400L331.543 239.676L470.815 0.000181233L558.263 194.332Z" fill="#497AC2"/>
<path d="M736.255 311H707.202V86.9521H628.076V61.1465H815.381V86.9521H736.255V311ZM977.051 311V189.833C977.051 174.566 973.576 163.173 966.626 155.653C959.676 148.134 948.796 144.374 933.984 144.374C914.274 144.374 899.862 149.729 890.747 160.438C881.746 171.148 877.246 188.694 877.246 213.075V311H848.877V45.082H877.246V125.575C877.246 135.259 876.79 143.292 875.879 149.672H877.588C883.171 140.671 891.089 133.607 901.343 128.48C911.711 123.24 923.503 120.619 936.719 120.619C959.619 120.619 976.766 126.088 988.159 137.025C999.666 147.849 1005.42 165.11 1005.42 188.808V311H977.051ZM1225.54 217.177C1225.54 247.711 1217.85 271.579 1202.47 288.783C1187.08 305.873 1165.84 314.418 1138.72 314.418C1121.97 314.418 1107.1 310.487 1094.12 302.626C1081.13 294.765 1071.1 283.485 1064.04 268.788C1056.97 254.091 1053.44 236.887 1053.44 217.177C1053.44 186.643 1061.08 162.888 1076.34 145.912C1091.61 128.822 1112.8 120.277 1139.92 120.277C1166.12 120.277 1186.91 128.993 1202.29 146.425C1217.79 163.856 1225.54 187.44 1225.54 217.177ZM1082.84 217.177C1082.84 241.103 1087.62 259.332 1097.19 271.864C1106.76 284.397 1120.83 290.663 1139.4 290.663C1157.98 290.663 1172.05 284.454 1181.62 272.035C1191.3 259.503 1196.14 241.216 1196.14 217.177C1196.14 193.365 1191.3 175.307 1181.62 163.002C1172.05 150.583 1157.86 144.374 1139.06 144.374C1120.49 144.374 1106.48 150.469 1097.02 162.66C1087.57 174.851 1082.84 193.023 1082.84 217.177ZM1302.1 123.695V245.204C1302.1 260.471 1305.57 271.864 1312.52 279.384C1319.47 286.903 1330.35 290.663 1345.17 290.663C1364.76 290.663 1379.06 285.308 1388.06 274.599C1397.18 263.889 1401.73 246.4 1401.73 222.133V123.695H1430.1V311H1406.69L1402.59 285.878H1401.05C1395.24 295.106 1387.15 302.17 1376.78 307.069C1366.53 311.968 1354.79 314.418 1341.58 314.418C1318.79 314.418 1301.7 309.006 1290.31 298.183C1279.03 287.359 1273.39 270.041 1273.39 246.229V123.695H1302.1ZM1643.73 123.695V141.64L1609.03 145.741C1612.22 149.729 1615.07 154.97 1617.58 161.464C1620.08 167.844 1621.34 175.079 1621.34 183.168C1621.34 201.511 1615.07 216.151 1602.54 227.089C1590.01 238.026 1572.8 243.495 1550.93 243.495C1545.35 243.495 1540.1 243.039 1535.21 242.128C1523.13 248.508 1517.09 256.54 1517.09 266.225C1517.09 271.352 1519.2 275.168 1523.41 277.675C1527.63 280.067 1534.86 281.264 1545.12 281.264H1578.27C1598.55 281.264 1614.1 285.536 1624.93 294.081C1635.86 302.626 1641.33 315.045 1641.33 331.337C1641.33 352.073 1633.02 367.852 1616.38 378.676C1599.75 389.613 1575.48 395.082 1543.58 395.082C1519.08 395.082 1500.17 390.525 1486.84 381.41C1473.62 372.296 1467.02 359.421 1467.02 342.787C1467.02 331.394 1470.66 321.539 1477.95 313.222C1485.25 304.905 1495.5 299.265 1508.72 296.303C1503.93 294.138 1499.89 290.777 1496.58 286.22C1493.39 281.662 1491.8 276.365 1491.8 270.326C1491.8 263.49 1493.62 257.509 1497.27 252.382C1500.91 247.255 1506.67 242.299 1514.53 237.514C1504.84 233.526 1496.92 226.747 1490.77 217.177C1484.73 207.606 1481.71 196.669 1481.71 184.364C1481.71 163.856 1487.87 148.077 1500.17 137.025C1512.48 125.86 1529.91 120.277 1552.47 120.277C1562.26 120.277 1571.09 121.417 1578.96 123.695H1643.73ZM1494.36 342.445C1494.36 352.585 1498.63 360.276 1507.18 365.517C1515.72 370.757 1527.97 373.378 1543.92 373.378C1567.73 373.378 1585.34 369.789 1596.73 362.611C1608.24 355.548 1613.99 345.92 1613.99 333.729C1613.99 323.59 1610.86 316.526 1604.59 312.538C1598.32 308.664 1586.53 306.728 1569.21 306.728H1535.21C1522.33 306.728 1512.3 309.804 1505.13 315.956C1497.95 322.108 1494.36 330.938 1494.36 342.445ZM1509.74 183.681C1509.74 196.783 1513.44 206.695 1520.85 213.417C1528.26 220.139 1538.57 223.5 1551.78 223.5C1579.47 223.5 1593.31 210.056 1593.31 183.168C1593.31 155.027 1579.3 140.956 1551.27 140.956C1537.94 140.956 1527.69 144.545 1520.51 151.723C1513.33 158.9 1509.74 169.553 1509.74 183.681ZM1810.35 311V189.833C1810.35 174.566 1806.88 163.173 1799.93 155.653C1792.98 148.134 1782.1 144.374 1767.29 144.374C1747.57 144.374 1733.16 149.729 1724.05 160.438C1715.05 171.148 1710.55 188.694 1710.55 213.075V311H1682.18V45.082H1710.55V125.575C1710.55 135.259 1710.09 143.292 1709.18 149.672H1710.89C1716.47 140.671 1724.39 133.607 1734.64 128.48C1745.01 123.24 1756.8 120.619 1770.02 120.619C1792.92 120.619 1810.07 126.088 1821.46 137.025C1832.97 147.849 1838.72 165.11 1838.72 188.808V311H1810.35ZM1957.67 291.005C1962.68 291.005 1967.52 290.663 1972.19 289.979C1976.86 289.182 1980.57 288.384 1983.3 287.587V309.291C1980.22 310.772 1975.67 311.968 1969.63 312.88C1963.7 313.905 1958.35 314.418 1953.56 314.418C1917.33 314.418 1899.22 295.334 1899.22 257.167V145.741H1872.39V132.069L1899.22 120.277L1911.18 80.2871H1927.59V123.695H1981.93V145.741H1927.59V255.971C1927.59 267.25 1930.27 275.909 1935.62 281.947C1940.97 287.986 1948.32 291.005 1957.67 291.005ZM2116.09 61.1465H2186.67C2219.82 61.1465 2243.81 66.1025 2258.62 76.0146C2273.43 85.9268 2280.83 101.592 2280.83 123.012C2280.83 137.823 2276.68 150.071 2268.36 159.755C2260.16 169.325 2248.14 175.535 2232.3 178.383V180.092C2270.24 186.586 2289.21 206.524 2289.21 239.906C2289.21 262.237 2281.63 279.669 2266.48 292.201C2251.44 304.734 2230.36 311 2203.25 311H2116.09V61.1465ZM2145.14 168.129H2192.99C2213.5 168.129 2228.26 164.939 2237.26 158.559C2246.26 152.064 2250.76 141.184 2250.76 125.917C2250.76 111.903 2245.74 101.82 2235.72 95.668C2225.69 89.4017 2209.74 86.2686 2187.87 86.2686H2145.14V168.129ZM2145.14 192.738V286.22H2197.27C2217.43 286.22 2232.58 282.346 2242.72 274.599C2252.98 266.737 2258.11 254.49 2258.11 237.855C2258.11 222.361 2252.86 210.967 2242.38 203.676C2232.01 196.384 2216.18 192.738 2194.87 192.738H2145.14ZM2309.03 123.695H2339.45L2380.47 230.507C2389.47 254.888 2395.05 272.491 2397.22 283.314H2398.58C2400.07 277.504 2403.14 267.592 2407.81 253.578C2412.6 239.451 2428.09 196.156 2454.3 123.695H2484.72L2404.22 336.977C2396.25 358.054 2386.91 372.979 2376.2 381.752C2365.6 390.639 2352.56 395.082 2337.06 395.082C2328.4 395.082 2319.86 394.114 2311.43 392.177V369.447C2317.69 370.814 2324.7 371.498 2332.45 371.498C2351.93 371.498 2365.83 360.561 2374.15 338.686L2384.57 312.025L2309.03 123.695ZM2575.63 291.005C2580.65 291.005 2585.49 290.663 2590.16 289.979C2594.83 289.182 2598.54 288.384 2601.27 287.587V309.291C2598.19 310.772 2593.64 311.968 2587.6 312.88C2581.67 313.905 2576.32 314.418 2571.53 314.418C2535.3 314.418 2517.19 295.334 2517.19 257.167V145.741H2490.36V132.069L2517.19 120.277L2529.15 80.2871H2545.56V123.695H2599.9V145.741H2545.56V255.971C2545.56 267.25 2548.23 275.909 2553.59 281.947C2558.94 287.986 2566.29 291.005 2575.63 291.005ZM2717.99 314.418C2690.31 314.418 2668.43 305.987 2652.37 289.125C2636.42 272.263 2628.44 248.85 2628.44 218.886C2628.44 188.694 2635.85 164.711 2650.66 146.938C2665.58 129.164 2685.58 120.277 2710.64 120.277C2734.11 120.277 2752.69 128.025 2766.36 143.52C2780.03 158.9 2786.87 179.237 2786.87 204.53V222.475H2657.84C2658.41 244.464 2663.93 261.155 2674.41 272.548C2685.01 283.941 2699.88 289.638 2719.02 289.638C2739.18 289.638 2759.12 285.422 2778.83 276.991V302.284C2768.81 306.614 2759.29 309.69 2750.29 311.513C2741.41 313.45 2730.64 314.418 2717.99 314.418ZM2710.3 144.032C2695.26 144.032 2683.24 148.931 2674.24 158.729C2665.36 168.528 2660.12 182.086 2658.52 199.403H2756.45C2756.45 181.516 2752.46 167.844 2744.48 158.388C2736.51 148.817 2725.11 144.032 2710.3 144.032ZM2956.23 259.901C2956.23 277.333 2949.73 290.777 2936.74 300.233C2923.75 309.69 2905.53 314.418 2882.06 314.418C2857.22 314.418 2837.85 310.487 2823.95 302.626V276.308C2832.95 280.865 2842.58 284.454 2852.83 287.074C2863.2 289.695 2873.17 291.005 2882.74 291.005C2897.55 291.005 2908.94 288.669 2916.92 283.998C2924.89 279.213 2928.88 271.978 2928.88 262.294C2928.88 255.002 2925.69 248.793 2919.31 243.666C2913.05 238.425 2900.74 232.273 2882.4 225.209C2864.97 218.715 2852.55 213.075 2845.14 208.29C2837.85 203.391 2832.38 197.865 2828.74 191.713C2825.2 185.561 2823.44 178.212 2823.44 169.667C2823.44 154.4 2829.65 142.38 2842.07 133.607C2854.48 124.721 2871.52 120.277 2893.16 120.277C2913.33 120.277 2933.04 124.379 2952.29 132.582L2942.21 155.653C2923.41 147.906 2906.38 144.032 2891.11 144.032C2877.67 144.032 2867.53 146.14 2860.69 150.355C2853.86 154.571 2850.44 160.382 2850.44 167.787C2850.44 172.8 2851.69 177.073 2854.2 180.604C2856.82 184.136 2860.98 187.497 2866.67 190.688C2872.37 193.878 2883.31 198.492 2899.49 204.53C2921.7 212.619 2936.69 220.766 2944.43 228.969C2952.29 237.172 2956.23 247.483 2956.23 259.901Z" fill="black"/>
</svg>
